# xmcd
#
# Track frame offsets:
#	150
#	24229
#	52194
#	73415
#	100246
#	125708
#	148314
#	171445
#	202974
#	228476
#
# Disc length: 3328 seconds
# Revision: 0
# Processed by: cddbd v1.5.2PL0 Copyright (c) Steve Scherf et al.
# Submitted via: dBpowerAMP V12.0
#
DISCID=9c0cfe0a
DTITLE=Peter Karp - The Arson's Match
DYEAR=2015
DGENRE=Blues
TTITLE0=The Arson's Match
TTITLE1=Geechee Geechee Wawa
TTITLE2=Y'all Be Lookin'
TTITLE3=The Turning Point
TTITLE4=The Nietzsche Lounge
TTITLE5=Your Prettiness
TTITLE6=Rolling On A Log
TTITLE7=I'm Not Giving Up
TTITLE8=Treat Me Right
TTITLE9=Train Of Mine
EXTD=
EXTT0=
EXTT1=
EXTT2=
EXTT3=
EXTT4=
EXTT5=
EXTT6=
EXTT7=
EXTT8=
EXTT9=
PLAYORDER=
